<?xml version="1.0" encoding="utf-8"?>
<!-- Generator: Adobe Illustrator 23.0.3, SVG Export Plug-In . SVG Version: 6.00 Build 0)  -->
<svg version="1.1" id="Layer_1" xmlns="http://www.w3.org/2000/svg" xmlns:xlink="http://www.w3.org/1999/xlink" x="0px" y="0px"
	 viewBox="0 0 101.9 27.6" style="enable-background:new 0 0 101.9 27.6;" xml:space="preserve">
<style type="text/css">
	.st0{clip-path:url(#SVGID_2_);fill:#0098FF;}
	.st1{clip-path:url(#SVGID_2_);fill:#98CB33;}
	.st2{clip-path:url(#SVGID_2_);fill:#B0B2B3;}
</style>
<g>
	<defs>
		<rect id="SVGID_1_" y="0" width="101.9" height="27.6"/>
	</defs>
	<clipPath id="SVGID_2_">
		<use xlink:href="#SVGID_1_"  style="overflow:visible;"/>
	</clipPath>
	<path class="st0" d="M85,13.8c-2,0-3.7-1.7-3.7-3.7c0-2,1.7-3.7,3.7-3.7c2,0,3.7,1.7,3.7,3.7C88.7,12.1,87.1,13.8,85,13.8"/>
	<path class="st1" d="M84.8,20c-1,0-1.7-0.8-1.7-1.7s0.8-1.7,1.7-1.7c3.6,0,6.5-2.9,6.5-6.5c0-1,0.8-1.7,1.7-1.7S94.8,9,94.8,10
		C94.8,15.5,90.3,20,84.8,20"/>
	<path class="st1" d="M84.3,27.1c-0.9,0-1.7-0.7-1.7-1.7c0-1,0.7-1.8,1.7-1.8c3.9-0.1,7.6-1.7,10.3-4.4c2.7-2.7,4-6.1,3.9-9.7
		c0-1,0.7-1.8,1.7-1.8c1,0,1.8,0.7,1.8,1.7c0.2,4.6-1.6,8.9-4.9,12.3C93.7,25.1,89.2,27,84.3,27.1C84.3,27.1,84.3,27.1,84.3,27.1"/>
	<path class="st2" d="M72.8,0.1c-5.4,0-9.8,4.3-10,9.6c0,0.1,0,0.1,0,0.2c0,3.6-2.9,6.5-6.5,6.5c-1,0-1.7,0.8-1.7,1.7
		s0.8,1.7,1.7,1.7c5.4,0,9.8-4.3,10-9.6c0-0.1,0-0.1,0-0.2c0-3.6,2.9-6.5,6.5-6.5c1,0,1.7-0.8,1.7-1.7S73.7,0.1,72.8,0.1"/>
	<path class="st2" d="M84.5,0.1c-5.4,0-9.8,4.3-10,9.6c0,0.1,0,0.1,0,0.2c0,3.6-2.9,6.5-6.5,6.5c-1,0-1.7,0.8-1.7,1.7
		s0.8,1.7,1.7,1.7c5.4,0,9.8-4.3,10-9.6c0-0.1,0-0.1,0-0.2c0-3.6,2.9-6.5,6.5-6.5c1,0,1.7-0.8,1.7-1.7S85.5,0.1,84.5,0.1"/>
	<path class="st2" d="M36.6,16.4c-3.5-0.1-6.3-2.9-6.4-6.4c0-3.5,2.9-6.4,6.4-6.4c3.4,0.1,6.2,2.8,6.4,6.1v0.4c0,0,0,0.1,0,0.1
		C43,13.6,40.1,16.4,36.6,16.4 M46.6,10C46.6,10,46.6,9.9,46.6,10c0-0.2,0-0.2,0-0.3c0,0,0-0.1,0-0.1V1.8c0-1-0.8-1.7-1.7-1.7
		s-1.7,0.8-1.7,1.7v0.7c-1.7-1.4-3.8-2.3-6.1-2.4c-0.1,0-0.1,0-0.2,0c0,0-0.1,0-0.1,0c0,0-0.1,0-0.1,0c-0.1,0-0.1,0-0.2,0
		c-5.2,0.2-9.4,4.4-9.6,9.6c0,0.1,0,0.1,0,0.2c0,0,0,0.1,0,0.1c0,0,0,0.1,0,0.1c0,0.1,0,0.1,0,0.2c0.2,5.2,4.4,9.5,9.7,9.6
		c0,0,0.1,0,0.1,0c0,0,0,0,0,0c0,0,0.1,0,0.1,0c0.1,0,0.1,0,0.2,0c5.2-0.2,9.4-4.4,9.6-9.6C46.6,10.2,46.6,10.1,46.6,10
		C46.6,10.1,46.6,10,46.6,10"/>
	<path class="st2" d="M25.1,17.1v-6.8c0-0.1,0-0.1,0-0.2c0-5.4-4.3-9.8-9.6-10c-0.1,0-0.1,0-0.2,0c-0.1,0-0.1,0-0.2,0c0,0,0,0,0,0
		c0,0-0.1,0-0.1,0C9.8,0.2,5.5,4.5,5.3,9.7c0,0.1,0,0.1,0,0.2c0,0,0,0.1,0,0.1c0,0,0,0.1,0,0.1c0,0.1,0,0.1,0,0.2
		c0.2,5.3,4.6,9.6,10,9.6c1,0,1.7-0.8,1.7-1.7c0-1-0.8-1.7-1.7-1.7c-3.6,0-6.5-2.9-6.5-6.4c0.1-3.5,2.9-6.3,6.4-6.4
		c3.5,0,6.3,2.8,6.5,6.2c0,0,0,0.1,0,0.1v7.2c0,0.1,0,0.2,0,0.3c0,0.1,0,0.1,0,0.2c0,3.6-2.9,6.5-6.5,6.5c-1,0-1.7,0.8-1.7,1.7
		s0.8,1.7,1.7,1.7c5.5,0,10-4.5,10-10c0-0.1,0-0.2,0-0.3C25.1,17.2,25.1,17.1,25.1,17.1"/>
	<path class="st2" d="M1.7,19.9c-1,0-1.7-0.8-1.7-1.7V1.8c0-1,0.8-1.7,1.7-1.7s1.7,0.8,1.7,1.7v16.3C3.5,19.1,2.7,19.9,1.7,19.9"/>
	<path class="st2" d="M27.6,23.9h0.6c0.4,0,0.6,0.3,0.6,0.6c0,0.4-0.2,0.6-0.6,0.6h-0.5V23.9z M27.6,25.5h0.7c0.5,0,0.8,0.3,0.8,0.7
		c0,0.4-0.3,0.7-0.8,0.7h-0.7V25.5z M27.1,27.1c0,0.1,0.1,0.3,0.3,0.3h0.9c0.8,0,1.3-0.5,1.3-1.1c0-0.5-0.4-0.9-0.8-1v0
		c0.3-0.1,0.5-0.4,0.5-0.9c0-0.4-0.4-0.9-1.1-0.9h-0.9c-0.2,0-0.3,0.1-0.3,0.3V27.1z M32.1,25.7l1.5,1.6c0.1,0.1,0.1,0.1,0.2,0.1
		c0.1,0,0.2-0.1,0.2-0.2c0-0.1,0-0.1-0.1-0.2l-1.2-1.4l0.2,0c0.6,0,1.1-0.3,1.1-1.1c0-0.6-0.6-1.1-1.2-1.1h-0.9
		c-0.2,0-0.3,0.1-0.3,0.3v3.4c0,0.2,0.1,0.3,0.2,0.3c0.1,0,0.2-0.1,0.2-0.3V25.7z M32.1,23.9h0.6c0.5,0,0.7,0.3,0.7,0.7
		c0,0.5-0.2,0.7-0.7,0.7h-0.7V23.9z M35.9,25.8c0,1.3,0.8,1.6,1.5,1.6s1.5-0.3,1.5-1.6v-2.1c0-0.2-0.1-0.3-0.2-0.3
		c-0.1,0-0.2,0.1-0.2,0.3V26c0,0.6-0.4,1-1,1s-1-0.4-1-1v-2.3c0-0.2-0.1-0.3-0.2-0.3c-0.1,0-0.2,0.1-0.2,0.3V25.8z M42.1,23.4
		c-0.7,0-1.2,0.6-1.2,1c0,1.3,1.9,0.8,1.9,1.8c0,0.4-0.3,0.8-0.8,0.8c-0.5,0-0.7-0.3-0.9-0.3c-0.1,0-0.2,0.1-0.2,0.2
		c0,0.3,0.6,0.5,1.1,0.5c0.9,0,1.3-0.6,1.3-1.2c0-1.3-1.9-0.9-1.9-1.8c0-0.3,0.3-0.6,0.6-0.6c0.5,0,0.6,0.3,0.8,0.3
		c0.1,0,0.2-0.1,0.2-0.2C43.1,23.6,42.6,23.4,42.1,23.4 M46.3,23.4c-0.7,0-1.2,0.6-1.2,1c0,1.3,1.9,0.8,1.9,1.8
		c0,0.4-0.3,0.8-0.8,0.8c-0.5,0-0.7-0.3-0.9-0.3c-0.1,0-0.2,0.1-0.2,0.2c0,0.3,0.6,0.5,1.1,0.5c0.9,0,1.3-0.6,1.3-1.2
		c0-1.3-1.9-0.9-1.9-1.8c0-0.3,0.3-0.6,0.6-0.6c0.5,0,0.6,0.3,0.8,0.3c0.1,0,0.2-0.1,0.2-0.2C47.2,23.6,46.8,23.4,46.3,23.4
		 M49.9,25.7H51c0.1,0,0.2-0.1,0.2-0.2c0-0.2-0.1-0.2-0.2-0.2h-1.1v-1.3h1.2c0.1,0,0.2-0.1,0.2-0.2c0-0.2-0.1-0.2-0.2-0.2h-1.4
		c-0.2,0-0.3,0.1-0.3,0.3v3.4c0,0.1,0.1,0.3,0.3,0.3h1.4c0.1,0,0.2-0.1,0.2-0.2c0-0.2-0.1-0.2-0.2-0.2h-1.2V25.7z M53.8,23.7
		c0-0.2-0.1-0.3-0.2-0.3c-0.1,0-0.2,0.1-0.2,0.3v3.4c0,0.1,0.1,0.3,0.3,0.3h1.3c0.1,0,0.2-0.1,0.2-0.2c0-0.2-0.1-0.2-0.2-0.2h-1
		V23.7z M58.1,23.4c-0.7,0-1.2,0.6-1.2,1c0,1.3,1.9,0.8,1.9,1.8c0,0.4-0.3,0.8-0.8,0.8c-0.5,0-0.7-0.3-0.9-0.3
		c-0.1,0-0.2,0.1-0.2,0.2c0,0.3,0.6,0.5,1.1,0.5c0.9,0,1.3-0.6,1.3-1.2c0-1.3-1.9-0.9-1.9-1.8c0-0.3,0.3-0.6,0.6-0.6
		c0.5,0,0.6,0.3,0.8,0.3c0.1,0,0.2-0.1,0.2-0.2C59,23.6,58.6,23.4,58.1,23.4 M64.9,27l1.3-1.7c0.3-0.3,0.3-0.6,0.3-0.8
		c0-0.5-0.4-1-1.1-1c-0.8,0-1.2,0.6-1.2,1.2c0,0.2,0.1,0.3,0.2,0.3c0.1,0,0.2,0,0.2-0.2c0-0.5,0.2-0.9,0.7-0.9
		c0.4,0,0.6,0.3,0.6,0.6c0,0.2-0.1,0.5-0.3,0.7L64.3,27c-0.1,0.1-0.1,0.2-0.1,0.2c0,0.1,0.1,0.2,0.3,0.2h1.9c0.1,0,0.2-0.1,0.2-0.2
		c0-0.1-0.1-0.2-0.2-0.2H64.9z M68.9,25.4c0-0.7,0.3-1.6,1.2-1.6c0.9,0,1.2,0.8,1.2,1.6c0,0.7-0.3,1.6-1.2,1.6
		C69.2,27,68.9,26.2,68.9,25.4 M68.4,25.4c0,1,0.6,2,1.7,2c1.1,0,1.7-1,1.7-2c0-1-0.6-2-1.7-2C69,23.4,68.4,24.4,68.4,25.4 M74.4,27
		l1.3-1.7c0.3-0.3,0.3-0.6,0.3-0.8c0-0.5-0.4-1-1.1-1c-0.8,0-1.2,0.6-1.2,1.2c0,0.2,0.1,0.3,0.2,0.3c0.1,0,0.2,0,0.2-0.2
		c0-0.5,0.2-0.9,0.7-0.9c0.4,0,0.6,0.3,0.6,0.6c0,0.2-0.1,0.5-0.3,0.7L73.8,27c-0.1,0.1-0.1,0.2-0.1,0.2c0,0.1,0.1,0.2,0.3,0.2h1.9
		c0.1,0,0.2-0.1,0.2-0.2c0-0.1-0.1-0.2-0.2-0.2H74.4z M78.6,27.2c0,0.2,0.1,0.3,0.2,0.3c0.1,0,0.2-0.1,0.2-0.3v-3.6
		c0-0.1-0.1-0.1-0.1-0.1h-0.8c-0.1,0-0.2,0.1-0.2,0.2c0,0.1,0.1,0.2,0.2,0.2h0.5V27.2z"/>
	<path class="st2" d="M60.4,0c-2.7,0-6,1.6-7.5,4.1V1.8c0-1-0.8-1.7-1.7-1.7c-1,0-1.7,0.8-1.7,1.7v16.3c0,1,0.8,1.7,1.7,1.7
		c1,0,1.7-0.8,1.7-1.7v-6.4c0-3.5,3.9-8.3,7.5-8.3c1,0,1.7-0.8,1.7-1.7S61.3,0,60.4,0"/>
</g>
</svg>
